<mxfile host="app.diagrams.net" modified="2023-11-07T20:47:52.650Z" agent="Mozilla/5.0 (Windows NT 10.0; Win64; x64) AppleWebKit/537.36 (KHTML, like Gecko) Chrome/119.0.0.0 Safari/537.36" etag="r1C4XLWxz0gzr0Jx972b" version="22.0.8" type="device">
  <diagram id="Wz8zFK8FeMlCXGv5-y51" name="Page-1">
    <mxGraphModel dx="882" dy="590" grid="1" gridSize="10" guides="1" tooltips="1" connect="1" arrows="1" fold="1" page="1" pageScale="1" pageWidth="850" pageHeight="1100" math="0" shadow="0">
      <root>
        <mxCell id="0" />
        <mxCell id="1" parent="0" />
        <mxCell id="kdgPaka3iPbMAc7aiYt3-5" style="edgeStyle=orthogonalEdgeStyle;rounded=0;orthogonalLoop=1;jettySize=auto;html=1;exitX=1;exitY=0.5;exitDx=0;exitDy=0;entryX=0;entryY=0.5;entryDx=0;entryDy=0;" parent="1" source="kdgPaka3iPbMAc7aiYt3-1" target="kdgPaka3iPbMAc7aiYt3-2" edge="1">
          <mxGeometry relative="1" as="geometry" />
        </mxCell>
        <mxCell id="kdgPaka3iPbMAc7aiYt3-1" value="Segment" style="rounded=1;whiteSpace=wrap;html=1;" parent="1" vertex="1">
          <mxGeometry x="40" y="160" width="120" height="60" as="geometry" />
        </mxCell>
        <mxCell id="kdgPaka3iPbMAc7aiYt3-21" style="edgeStyle=orthogonalEdgeStyle;rounded=0;orthogonalLoop=1;jettySize=auto;html=1;exitX=0.5;exitY=1;exitDx=0;exitDy=0;entryX=0.5;entryY=0;entryDx=0;entryDy=0;" parent="1" source="kdgPaka3iPbMAc7aiYt3-2" target="kdgPaka3iPbMAc7aiYt3-6" edge="1">
          <mxGeometry relative="1" as="geometry" />
        </mxCell>
        <mxCell id="oOuPCFnpq9xoh86-aVS5-1" style="edgeStyle=orthogonalEdgeStyle;rounded=0;orthogonalLoop=1;jettySize=auto;html=1;exitX=0.5;exitY=0;exitDx=0;exitDy=0;" edge="1" parent="1" source="kdgPaka3iPbMAc7aiYt3-2">
          <mxGeometry relative="1" as="geometry">
            <mxPoint x="260" y="100" as="targetPoint" />
          </mxGeometry>
        </mxCell>
        <mxCell id="oOuPCFnpq9xoh86-aVS5-19" style="edgeStyle=orthogonalEdgeStyle;rounded=0;orthogonalLoop=1;jettySize=auto;html=1;exitX=1;exitY=0.5;exitDx=0;exitDy=0;entryX=0;entryY=0.5;entryDx=0;entryDy=0;" edge="1" parent="1" source="kdgPaka3iPbMAc7aiYt3-2" target="oOuPCFnpq9xoh86-aVS5-15">
          <mxGeometry relative="1" as="geometry" />
        </mxCell>
        <mxCell id="kdgPaka3iPbMAc7aiYt3-2" value="Segment adder" style="rounded=1;whiteSpace=wrap;html=1;" parent="1" vertex="1">
          <mxGeometry x="200" y="160" width="120" height="60" as="geometry" />
        </mxCell>
        <mxCell id="kdgPaka3iPbMAc7aiYt3-4" style="edgeStyle=orthogonalEdgeStyle;rounded=0;orthogonalLoop=1;jettySize=auto;html=1;exitX=0.5;exitY=1;exitDx=0;exitDy=0;" parent="1" source="kdgPaka3iPbMAc7aiYt3-3" target="kdgPaka3iPbMAc7aiYt3-2" edge="1">
          <mxGeometry relative="1" as="geometry" />
        </mxCell>
        <mxCell id="kdgPaka3iPbMAc7aiYt3-3" value="Segment ID generator" style="rounded=1;whiteSpace=wrap;html=1;" parent="1" vertex="1">
          <mxGeometry x="200" y="40" width="120" height="60" as="geometry" />
        </mxCell>
        <mxCell id="kdgPaka3iPbMAc7aiYt3-20" style="edgeStyle=orthogonalEdgeStyle;rounded=0;orthogonalLoop=1;jettySize=auto;html=1;exitX=0.5;exitY=1;exitDx=0;exitDy=0;entryX=0.5;entryY=0;entryDx=0;entryDy=0;" parent="1" source="kdgPaka3iPbMAc7aiYt3-6" target="kdgPaka3iPbMAc7aiYt3-7" edge="1">
          <mxGeometry relative="1" as="geometry" />
        </mxCell>
        <mxCell id="kdgPaka3iPbMAc7aiYt3-6" value="Key-value store" style="rounded=1;whiteSpace=wrap;html=1;" parent="1" vertex="1">
          <mxGeometry x="200" y="280" width="120" height="60" as="geometry" />
        </mxCell>
        <mxCell id="kdgPaka3iPbMAc7aiYt3-12" style="edgeStyle=orthogonalEdgeStyle;rounded=0;orthogonalLoop=1;jettySize=auto;html=1;exitX=0.5;exitY=0;exitDx=0;exitDy=0;entryX=0.5;entryY=0;entryDx=0;entryDy=0;" parent="1" source="kdgPaka3iPbMAc7aiYt3-7" target="kdgPaka3iPbMAc7aiYt3-7" edge="1">
          <mxGeometry relative="1" as="geometry" />
        </mxCell>
        <mxCell id="kdgPaka3iPbMAc7aiYt3-19" style="edgeStyle=orthogonalEdgeStyle;rounded=0;orthogonalLoop=1;jettySize=auto;html=1;exitX=0.5;exitY=0;exitDx=0;exitDy=0;entryX=0.5;entryY=1;entryDx=0;entryDy=0;" parent="1" source="kdgPaka3iPbMAc7aiYt3-7" target="kdgPaka3iPbMAc7aiYt3-6" edge="1">
          <mxGeometry relative="1" as="geometry" />
        </mxCell>
        <mxCell id="oOuPCFnpq9xoh86-aVS5-32" style="edgeStyle=orthogonalEdgeStyle;rounded=0;orthogonalLoop=1;jettySize=auto;html=1;exitX=1;exitY=0.5;exitDx=0;exitDy=0;entryX=0.25;entryY=1;entryDx=0;entryDy=0;" edge="1" parent="1" source="kdgPaka3iPbMAc7aiYt3-7" target="oOuPCFnpq9xoh86-aVS5-7">
          <mxGeometry relative="1" as="geometry" />
        </mxCell>
        <mxCell id="kdgPaka3iPbMAc7aiYt3-7" value="Graph processing service" style="rounded=1;whiteSpace=wrap;html=1;" parent="1" vertex="1">
          <mxGeometry x="200" y="400" width="120" height="60" as="geometry" />
        </mxCell>
        <mxCell id="kdgPaka3iPbMAc7aiYt3-11" style="edgeStyle=orthogonalEdgeStyle;rounded=0;orthogonalLoop=1;jettySize=auto;html=1;exitX=0.5;exitY=0;exitDx=0;exitDy=0;entryX=0.5;entryY=1;entryDx=0;entryDy=0;" parent="1" source="kdgPaka3iPbMAc7aiYt3-8" target="kdgPaka3iPbMAc7aiYt3-7" edge="1">
          <mxGeometry relative="1" as="geometry" />
        </mxCell>
        <mxCell id="kdgPaka3iPbMAc7aiYt3-8" value="Distributed search" style="rounded=1;whiteSpace=wrap;html=1;" parent="1" vertex="1">
          <mxGeometry x="200" y="520" width="120" height="60" as="geometry" />
        </mxCell>
        <mxCell id="kdgPaka3iPbMAc7aiYt3-10" style="edgeStyle=orthogonalEdgeStyle;rounded=0;orthogonalLoop=1;jettySize=auto;html=1;exitX=1;exitY=0.5;exitDx=0;exitDy=0;entryX=0;entryY=0.5;entryDx=0;entryDy=0;" parent="1" source="kdgPaka3iPbMAc7aiYt3-9" target="kdgPaka3iPbMAc7aiYt3-8" edge="1">
          <mxGeometry relative="1" as="geometry" />
        </mxCell>
        <mxCell id="kdgPaka3iPbMAc7aiYt3-9" value="User" style="rounded=1;whiteSpace=wrap;html=1;" parent="1" vertex="1">
          <mxGeometry x="40" y="520" width="120" height="60" as="geometry" />
        </mxCell>
        <mxCell id="kdgPaka3iPbMAc7aiYt3-27" value="Graph DB" style="rounded=1;whiteSpace=wrap;html=1;" parent="1" vertex="1">
          <mxGeometry x="640" y="520" width="120" height="60" as="geometry" />
        </mxCell>
        <mxCell id="oOuPCFnpq9xoh86-aVS5-2" value="Segment ID" style="text;html=1;strokeColor=none;fillColor=none;align=center;verticalAlign=middle;whiteSpace=wrap;rounded=0;" vertex="1" parent="1">
          <mxGeometry x="260" y="120" width="100" height="30" as="geometry" />
        </mxCell>
        <mxCell id="oOuPCFnpq9xoh86-aVS5-3" value="Graph, lat/long coordinates" style="text;html=1;strokeColor=none;fillColor=none;align=center;verticalAlign=middle;whiteSpace=wrap;rounded=0;" vertex="1" parent="1">
          <mxGeometry x="360" y="150" width="160" height="30" as="geometry" />
        </mxCell>
        <mxCell id="oOuPCFnpq9xoh86-aVS5-5" value="Server ID" style="text;html=1;strokeColor=none;fillColor=none;align=center;verticalAlign=middle;whiteSpace=wrap;rounded=0;" vertex="1" parent="1">
          <mxGeometry x="260" y="360" width="100" height="30" as="geometry" />
        </mxCell>
        <mxCell id="oOuPCFnpq9xoh86-aVS5-6" value="lat/long coordinates" style="text;html=1;strokeColor=none;fillColor=none;align=center;verticalAlign=middle;whiteSpace=wrap;rounded=0;" vertex="1" parent="1">
          <mxGeometry x="260" y="480" width="140" height="30" as="geometry" />
        </mxCell>
        <mxCell id="oOuPCFnpq9xoh86-aVS5-33" style="edgeStyle=orthogonalEdgeStyle;rounded=0;orthogonalLoop=1;jettySize=auto;html=1;exitX=0.25;exitY=1;exitDx=0;exitDy=0;entryX=1;entryY=0.5;entryDx=0;entryDy=0;" edge="1" parent="1" source="oOuPCFnpq9xoh86-aVS5-7" target="kdgPaka3iPbMAc7aiYt3-7">
          <mxGeometry relative="1" as="geometry" />
        </mxCell>
        <mxCell id="oOuPCFnpq9xoh86-aVS5-36" style="edgeStyle=orthogonalEdgeStyle;rounded=0;orthogonalLoop=1;jettySize=auto;html=1;exitX=0.75;exitY=1;exitDx=0;exitDy=0;" edge="1" parent="1" source="oOuPCFnpq9xoh86-aVS5-7" target="kdgPaka3iPbMAc7aiYt3-27">
          <mxGeometry relative="1" as="geometry" />
        </mxCell>
        <mxCell id="oOuPCFnpq9xoh86-aVS5-7" value="" style="swimlane;startSize=0;" vertex="1" parent="1">
          <mxGeometry x="520" y="40" width="280" height="280" as="geometry" />
        </mxCell>
        <mxCell id="oOuPCFnpq9xoh86-aVS5-14" value="Server" style="rounded=1;whiteSpace=wrap;html=1;" vertex="1" parent="oOuPCFnpq9xoh86-aVS5-7">
          <mxGeometry x="160" y="40" width="80" height="40" as="geometry" />
        </mxCell>
        <mxCell id="oOuPCFnpq9xoh86-aVS5-16" value="Server" style="rounded=1;whiteSpace=wrap;html=1;" vertex="1" parent="oOuPCFnpq9xoh86-aVS5-7">
          <mxGeometry x="160" y="200" width="80" height="40" as="geometry" />
        </mxCell>
        <mxCell id="oOuPCFnpq9xoh86-aVS5-23" style="edgeStyle=orthogonalEdgeStyle;rounded=0;orthogonalLoop=1;jettySize=auto;html=1;exitX=0.5;exitY=0;exitDx=0;exitDy=0;entryX=0;entryY=0.5;entryDx=0;entryDy=0;" edge="1" parent="oOuPCFnpq9xoh86-aVS5-7" source="oOuPCFnpq9xoh86-aVS5-15" target="oOuPCFnpq9xoh86-aVS5-14">
          <mxGeometry relative="1" as="geometry" />
        </mxCell>
        <mxCell id="oOuPCFnpq9xoh86-aVS5-24" style="edgeStyle=orthogonalEdgeStyle;rounded=0;orthogonalLoop=1;jettySize=auto;html=1;exitX=1;exitY=0.5;exitDx=0;exitDy=0;entryX=0;entryY=0.5;entryDx=0;entryDy=0;" edge="1" parent="oOuPCFnpq9xoh86-aVS5-7" source="oOuPCFnpq9xoh86-aVS5-15" target="oOuPCFnpq9xoh86-aVS5-18">
          <mxGeometry relative="1" as="geometry" />
        </mxCell>
        <mxCell id="oOuPCFnpq9xoh86-aVS5-25" style="edgeStyle=orthogonalEdgeStyle;rounded=0;orthogonalLoop=1;jettySize=auto;html=1;exitX=0.5;exitY=1;exitDx=0;exitDy=0;entryX=0;entryY=0.5;entryDx=0;entryDy=0;" edge="1" parent="oOuPCFnpq9xoh86-aVS5-7" source="oOuPCFnpq9xoh86-aVS5-15" target="oOuPCFnpq9xoh86-aVS5-16">
          <mxGeometry relative="1" as="geometry" />
        </mxCell>
        <mxCell id="oOuPCFnpq9xoh86-aVS5-15" value="Server allocator" style="rounded=1;whiteSpace=wrap;html=1;" vertex="1" parent="oOuPCFnpq9xoh86-aVS5-7">
          <mxGeometry x="40" y="120" width="80" height="40" as="geometry" />
        </mxCell>
        <mxCell id="oOuPCFnpq9xoh86-aVS5-18" value="Server" style="rounded=1;whiteSpace=wrap;html=1;" vertex="1" parent="oOuPCFnpq9xoh86-aVS5-7">
          <mxGeometry x="160" y="120" width="80" height="40" as="geometry" />
        </mxCell>
        <mxCell id="oOuPCFnpq9xoh86-aVS5-26" value="Graph" style="text;html=1;strokeColor=none;fillColor=none;align=center;verticalAlign=middle;whiteSpace=wrap;rounded=0;" vertex="1" parent="oOuPCFnpq9xoh86-aVS5-7">
          <mxGeometry x="100" y="30" width="40" height="30" as="geometry" />
        </mxCell>
        <mxCell id="oOuPCFnpq9xoh86-aVS5-29" value="Graph" style="text;html=1;strokeColor=none;fillColor=none;align=center;verticalAlign=middle;whiteSpace=wrap;rounded=0;" vertex="1" parent="oOuPCFnpq9xoh86-aVS5-7">
          <mxGeometry x="120" y="100" width="40" height="30" as="geometry" />
        </mxCell>
        <mxCell id="oOuPCFnpq9xoh86-aVS5-31" value="Graph" style="text;html=1;strokeColor=none;fillColor=none;align=center;verticalAlign=middle;whiteSpace=wrap;rounded=0;" vertex="1" parent="oOuPCFnpq9xoh86-aVS5-7">
          <mxGeometry x="100" y="190" width="40" height="30" as="geometry" />
        </mxCell>
        <mxCell id="oOuPCFnpq9xoh86-aVS5-20" style="edgeStyle=orthogonalEdgeStyle;rounded=0;orthogonalLoop=1;jettySize=auto;html=1;exitX=0;exitY=0.5;exitDx=0;exitDy=0;entryX=1;entryY=0.5;entryDx=0;entryDy=0;" edge="1" parent="1" source="oOuPCFnpq9xoh86-aVS5-15" target="kdgPaka3iPbMAc7aiYt3-2">
          <mxGeometry relative="1" as="geometry" />
        </mxCell>
        <mxCell id="oOuPCFnpq9xoh86-aVS5-21" value="Segment ID, lat/long coordinates" style="text;html=1;strokeColor=none;fillColor=none;align=center;verticalAlign=middle;whiteSpace=wrap;rounded=0;" vertex="1" parent="1">
          <mxGeometry x="270" y="250" width="140" height="30" as="geometry" />
        </mxCell>
        <mxCell id="oOuPCFnpq9xoh86-aVS5-22" value="Server ID" style="text;html=1;strokeColor=none;fillColor=none;align=center;verticalAlign=middle;whiteSpace=wrap;rounded=0;" vertex="1" parent="1">
          <mxGeometry x="375" y="190" width="100" height="30" as="geometry" />
        </mxCell>
      </root>
    </mxGraphModel>
  </diagram>
</mxfile>
